<?xml version="1.0" encoding="utf-8"?>
<svg viewBox="8.618 8.472 483.08 395.773" xmlns="http://www.w3.org/2000/svg">
  <g transform="matrix(-0.497779, 0, 0, -0.513351, -15.102666, 513.333679)" fill="#FFFFFF" stroke="none" fill-opacity="1" class="" style="">
    <path d="M -754.2490234375 982.5769653320312 C -749.5677490234375 981.1065063476562 -744.4769287109375 978.4923706054688 -739.971435546875 975.1703491210938 C -727.8004760742188 966.1298828125 -704.2777099609375 944.4000244140625 -664.1369018554688 905.1340942382812 C -643.0718383789062 884.493408203125 -626.6292724609375 868.699951171875 -610.01123046875 853.0153198242188 L -602.9894409179688 846.37109375 L -590.7014770507812 849.3119506835938 C -548.2786254882812 859.550537109375 -520.9525146484375 861.5656127929688 -480.9873046875 857.4266357421875 C -449.91619873046875 854.2135009765625 -400.6471252441406 843.7570190429688 -369.517578125 833.736328125 C -351.90484619140625 828.1268920898438 -338.3294677734375 822.6264038085938 -316.5621643066406 812.3877563476562 C -300.4122314453125 804.7632446289062 -297.0769348144531 802.966064453125 -294.3852844238281 800.35205078125 C -293.2734680175781 799.2627563476562 -292.0447082519531 798.3914184570312 -291.6936340332031 798.3914184570312 C -291.3425598144531 798.3914184570312 -288.9434509277344 799.4806518554688 -286.36883544921875 800.8421630859375 C -279.3471374511719 804.5999145507812 -260.9150695800781 812.932373046875 -248.10049438476562 818.1605224609375 C -207.02346801757812 834.8799438476562 -135.87013244628906 859.9862060546875 -118.14030456542969 864.0162353515625 C -108.71951293945312 866.1947631835938 -100.0008773803711 866.1947631835938 -93.3887710571289 864.07080078125 C -84.84568786621094 861.3477172851562 -78.29209899902344 856.0106811523438 -74.66419982910156 848.8762817382812 C -69.98307037353516 839.563720703125 -69.74900817871094 830.1963500976562 -73.72798156738281 811.4619140625 C -77.58992004394531 793.3265380859375 -90.93115997314453 738.7027587890625 -97.19219970703125 715.339111328125 C -103.8042984008789 690.6685180664062 -109.71424865722656 670.354736328125 -111.0015640258789 667.8495483398438 C -115.39012908935547 659.0814208984375 -126.15675354003906 653.5263671875 -135.51904296875 655.1057739257812 C -145.3494415283203 656.7940673828125 -152.48817443847656 663.2203979492188 -154.47767639160156 672.3153076171875 C -155.5309295654297 676.9444580078125 -154.94578552246094 680.37548828125 -150.67422485351562 695.7333374023438 C -145.7005157470703 713.3784790039062 -137.33297729492188 745.0745239257812 -133.2369842529297 761.6305541992188 C -127.03446197509766 786.5734252929688 -119.7787094116211 817.507080078125 -120.12980651855469 817.7792358398438 C -120.597900390625 818.2694091796875 -146.3441925048828 809.5014038085938 -173.78736877441406 799.5895385742188 C -228.790771484375 779.656982421875 -256.4095153808594 767.9479370117188 -273.55419921875 757.2737426757812 C -281.3951110839844 752.4267578125 -285.1985168457031 750.7384643554688 -290.2892761230469 749.9215087890625 C -300.0611267089844 748.3421630859375 -311.1203308105469 753.7337646484375 -314.8652648925781 761.7939453125 C -315.5674743652344 763.31884765625 -316.44512939453125 764.2991333007812 -317.3228759765625 764.5169677734375 C -318.0250549316406 764.6803588867188 -325.7489013671875 768.165771484375 -334.40899658203125 772.1959228515625 C -364.1928405761719 786.192138671875 -379.93310546875 792.1284790039062 -404.918701171875 798.6636962890625 C -435.52166748046875 806.6693725585938 -465.4809875488281 812.27880859375 -492.6900939941406 815.0562744140625 C -505.0366516113281 816.36328125 -527.740234375 816.36328125 -537.8631591796875 815.1107788085938 C -556.295166015625 812.8234252929688 -581.9244384765625 807.2683715820312 -608.1387939453125 799.9163208007812 C -613.6976928710938 798.3914184570312 -620.9534301757812 798.6636962890625 -625.6345825195312 800.6787719726562 C -632.1296997070312 803.4562377929688 -636.6351928710938 808.7388305664062 -638.74169921875 816.0911254882812 C -639.6779174804688 819.1953125 -640.2046508789062 819.7943725585938 -650.6201782226562 829.7062377929688 C -669.0521240234375 847.18798828125 -680.7550048828125 858.4613647460938 -697.1974487304688 874.6361083984375 C -731.7208862304688 908.5105590820312 -759.1641845703125 934.1614379882812 -760.5684204101562 933.88916015625 C -761.8557739257812 933.6712646484375 -771.569091796875 918.4224853515625 -777.888671875 906.767822265625 C -786.1392211914062 891.6278076171875 -794.3311767578125 874.9628295898438 -820.487060546875 819.9032592773438 C -834.120849609375 791.257080078125 -843.834228515625 767.1310424804688 -854.07421875 736.306396484375 C -856.8243408203125 728.0828857421875 -859.9257202148438 719.9137573242188 -860.8619384765625 718.1710205078125 C -871.5699462890625 699.4365844726562 -900.1834716796875 703.4666748046875 -904.1038818359375 724.2705688476562 C -904.9816284179688 728.9542236328125 -904.2794799804688 732.221923828125 -898.427978515625 749.5947265625 C -887.7785034179688 781.290771484375 -877.655517578125 806.6693725585938 -864.6653442382812 834.0630493164062 C -824.1734619140625 919.675048828125 -813.0558471679688 940.69677734375 -797.3739013671875 961.173828125 C -788.6552734375 972.55615234375 -780.8728637695312 979.2003173828125 -773.2660522460938 981.9232788085938 C -768.3507690429688 983.6660766601562 -758.81298828125 983.9928588867188 -754.2490234375 982.5769653320312 Z " transform="matrix(1 0 0 1 0 0)" stroke-width="1.3333" class="" style="fill-opacity: 1; fill: #20a6f3;"/>
    <path d="M -634.0020751953125 744.1487426757812 C -615.2775268554688 740.2820434570312 -600.1222534179688 726.2857055664062 -591.2281494140625 704.664794921875 C -581.9244384765625 681.9003295898438 -577.7113647460938 644.75830078125 -581.3977661132812 618.1270141601562 C -584.7330932617188 594.0010986328125 -592.5155029296875 577.3906860351562 -606.2662963867188 564.7557983398438 C -615.9796752929688 555.82421875 -626.6292724609375 550.8682861328125 -639.0927734375 549.4523315429688 C -648.7476806640625 548.3631591796875 -661.0941162109375 550.378173828125 -670.8660278320312 554.6805419921875 C -694.271728515625 565.0280151367188 -707.9056396484375 585.5597534179688 -711.2409057617188 615.6763305664062 C -711.708984375 620.196533203125 -712.3527221679688 625.8060302734375 -712.7037353515625 628.2022705078125 C -715.3955078125 649.8775634765625 -712.7037353515625 675.4739379882812 -705.62353515625 695.7877807617188 C -697.138916015625 720.1316528320312 -680.3453979492188 737.2322387695312 -659.1632080078125 743.1683959960938 C -652.4340209960938 745.0200805664062 -640.4386596679688 745.5103149414062 -634.0020751953125 744.1487426757812 Z M -649.391357421875 699.8722534179688 C -655.476806640625 695.896728515625 -660.157958984375 687.9454956054688 -663.2591552734375 676.454345703125 C -666.5360717773438 664.3640747070312 -667.9403076171875 648.8427734375 -666.302001953125 642.3075561523438 C -665.7167358398438 639.9113159179688 -665.2487182617188 634.5197143554688 -665.0146484375 627.3853149414062 C -664.6636352539062 614.9138793945312 -663.6687622070312 609.8490600585938 -660.3920288085938 603.1505126953125 C -657.3493041992188 597.0509033203125 -650.9126586914062 592.5307006835938 -645.2953491210938 592.5307006835938 C -640.1460571289062 592.5307006835938 -634.2362060546875 599.2293090820312 -630.9008178710938 608.8687744140625 C -627.5654907226562 618.453857421875 -626.4537353515625 628.420166015625 -626.86328125 644.2681274414062 C -627.5070190429688 667.7950439453125 -632.3051147460938 688.2177734375 -639.4439086914062 697.8572387695312 C -642.486572265625 701.9962158203125 -645.3538208007812 702.5953369140625 -649.391357421875 699.8722534179688 Z " transform="matrix(1 0 0 1 0 0)" stroke-width="1.3333" class="" style="fill-opacity: 1; fill: #20a6f3;"/>
    <path d="M -336.45703125 673.1322631835938 C -322.6476745605469 671.6073608398438 -310.24261474609375 663.8195190429688 -300.529296875 650.5855102539062 C -290.9328918457031 637.5150756835938 -282.3313293457031 614.04248046875 -279.05450439453125 591.986083984375 C -277.8257141113281 584.0347290039062 -278.00128173828125 562.74072265625 -279.3471374511719 554.952880859375 C -283.0920104980469 532.73291015625 -291.6936340332031 514.052978515625 -303.04534912109375 503.3786926269531 C -319.95599365234375 487.4217834472656 -345.1756286621094 486.4959411621094 -364.83648681640625 501.0913391113281 C -378.64581298828125 511.3299560546875 -388.4176940917969 529.9555053710938 -393.3328857421875 555.3341064453125 C -396.1416015625 570.1473388671875 -394.5032043457031 608.5419921875 -390.2901306152344 625.0435180664062 C -387.4814453125 636.1535034179688 -380.4012451171875 649.3329467773438 -372.3847961425781 658.3734130859375 C -362.7884826660156 669.2655029296875 -349.8568115234375 674.5481567382812 -336.45703125 673.1322631835938 Z M -341.72332763671875 623.028564453125 C -345.40972900390625 616.2754516601562 -346.9895935058594 607.6162109375 -346.9895935058594 594.60009765625 C -346.9895935058594 589.970947265625 -347.3992004394531 584.30712890625 -347.86737060546875 581.3662719726562 C -350.0908508300781 568.5135498046875 -345.0001220703125 546.2936401367188 -337.68585205078125 537.144287109375 C -336.6911315917969 535.8372802734375 -335.6378173828125 534.802490234375 -335.3452453613281 534.802490234375 C -334.64312744140625 534.802490234375 -331.5418395996094 540.4663696289062 -329.7279052734375 545.1499633789062 C -326.33404541015625 553.9725952148438 -325.2222900390625 559.8543701171875 -324.9297180175781 571.236572265625 C -324.52008056640625 584.9061889648438 -325.7489013671875 593.2386474609375 -330.0789794921875 606.962646484375 C -332.7121276855469 615.2406616210938 -338.0368957519531 626.2962036132812 -339.4412536621094 626.2962036132812 C -339.7338562011719 626.2962036132812 -340.7286071777344 624.8257446289062 -341.72332763671875 623.028564453125 Z " transform="matrix(1 0 0 1 0 0)" stroke-width="1.3333" class="" style="fill-opacity: 1; fill: #20a6f3;"/>
    <path d="M -869.9315795898438 629.5093383789062 C -863.3780517578125 628.0933837890625 -857.2340087890625 623.3552856445312 -854.4253540039062 617.69140625 C -850.2122192382812 609.195556640625 -851.792236328125 600.2640380859375 -858.6968994140625 593.8377075195312 C -864.0216674804688 588.8817138671875 -866.9474487304688 587.9014892578125 -883.5655517578125 585.7775268554688 C -893.6298828125 584.4705200195312 -897.4918212890625 584.0892333984375 -919.5518188476562 582.4553833007812 C -943.8937377929688 580.658203125 -960.628662109375 578.9154663085938 -979.7627563476562 576.137939453125 C -994.5670166015625 573.9595947265625 -999.599365234375 574.0684814453125 -1005.3336181640625 576.6281127929688 C -1010.0147094726562 578.7521362304688 -1014.1106567382812 582.5643310546875 -1016.2757568359375 586.9756469726562 C -1018.3822631835938 591.33251953125 -1018.7333984375 598.0311889648438 -1017.0949096679688 602.4968872070312 C -1014.7544555664062 608.6509399414062 -1009.4882202148438 613.4979248046875 -1002.4664306640625 615.9486083984375 C -994.2159423828125 618.8895263671875 -957.9955444335938 623.0830078125 -910.7745971679688 626.5684204101562 C -904.3379516601562 627.0585327148438 -894.6246948242188 628.0389404296875 -889.1826782226562 628.7468872070312 C -878.9428100585938 630.162841796875 -873.7349853515625 630.3262329101562 -869.9315795898438 629.5093383789062 Z " transform="matrix(1 0 0 1 0 0)" stroke-width="1.3333" class="" style="fill-opacity: 1; fill: #20a6f3;"/>
    <path d="M -693.39404296875 523.1478881835938 C -681.6326293945312 520.6972045898438 -673.5576782226562 509.6416931152344 -675.83984375 499.0763244628906 C -676.2493286132812 497.3335876464844 -676.658935546875 495.2640686035156 -676.8345947265625 494.50164794921875 C -677.068603515625 493.3035583496094 -676.6004638671875 492.7589416503906 -673.6748046875 490.7438659667969 C -666.77001953125 485.9513854980469 -656.2960815429688 482.3025207519531 -644.8272094726562 480.66876220703125 C -621.53857421875 477.2921447753906 -592.04736328125 478.3813781738281 -563.2583618164062 483.60955810546875 C -546.1136474609375 486.76824951171875 -534.4107666015625 490.5260314941406 -514.0477905273438 499.4031066894531 C -496.4935302734375 507.13653564453125 -493.0412292480469 508.2257080078125 -484.8492126464844 508.55242919921875 C -474.19964599609375 508.9881286621094 -467.52899169921875 506.8097229003906 -460.50726318359375 500.6556701660156 C -455.8262023925781 496.57110595703125 -453.3685607910156 493.3035583496094 -445.87872314453125 480.88653564453125 C -442.8945617675781 475.93060302734375 -439.2666320800781 469.9399719238281 -437.8037414550781 467.5437316894531 C -429.6117248535156 454.2552490234375 -422.35601806640625 446.46746826171875 -414.86614990234375 443.1454162597656 C -410.2435302734375 441.0758972167969 -402.5196228027344 439.49658203125 -397.1363220214844 439.49658203125 L -394.1520690917969 439.49658203125 L -396.7267150878906 442.001708984375 C -398.1895751953125 443.3633117675781 -401.3493347167969 445.9228515625 -403.7484436035156 447.6656188964844 C -406.14752197265625 449.3538818359375 -409.4243469238281 452.076904296875 -410.9456787109375 453.601806640625 C -422.8240966796875 465.4742126464844 -417.90887451171875 483.7184753417969 -401.4664001464844 488.78326416015625 C -397.4288635253906 490.035888671875 -390.17315673828125 489.7091369628906 -385.6090087890625 488.0209045410156 C -378.0021667480469 485.29779052734375 -361.6766662597656 472.00946044921875 -355.2986145019531 463.2957458496094 C -351.6707458496094 458.39434814453125 -347.45770263671875 450.3886413574219 -346.11187744140625 445.75946044921875 C -345.5852355957031 443.9622802734375 -345.0001220703125 439.6599426269531 -344.8245849609375 436.2288818359375 C -344.2393798828125 424.7922058105469 -347.45770263671875 416.7320556640625 -355.7667541503906 408.9441833496094 C -359.9212341308594 405.02294921875 -361.6766662597656 403.8793640136719 -366.29931640625 401.7554016113281 C -378.9383850097656 395.9825744628906 -393.6839904785156 394.675537109375 -412.9936828613281 397.6163635253906 C -416.97265625 398.2154541015625 -420.3080139160156 398.6511535644531 -420.36651611328125 398.5422058105469 C -420.4835205078125 398.4333190917969 -422.8240966796875 394.72998046875 -425.6912841796875 390.2097473144531 C -431.1916198730469 381.4960632324219 -435.6387634277344 374.79742431640625 -449.56512451171875 354.5380554199219 C -454.36328125 347.5127258300781 -460.74139404296875 338.199951171875 -463.7255554199219 333.8431091308594 C -496.3765563964844 286.0812683105469 -507.6112976074219 270.3421630859375 -521.1281127929688 253.5138702392578 C -535.2299194335938 235.9775848388672 -549.7999877929688 221.4365997314453 -557.699462890625 217.1342315673828 C -570.806640625 209.9454345703125 -585.6107788085938 211.19802856445312 -596.2603759765625 220.40187072753906 C -607.5535278320312 230.15029907226562 -612.5858764648438 243.65650939941406 -618.7298583984375 281.0163879394531 C -626.5706787109375 328.6693420410156 -633.7095336914062 386.66986083984375 -636.2841186523438 423.8663330078125 C -636.7522583007812 430.45611572265625 -637.2203369140625 435.84771728515625 -637.33740234375 435.9565734863281 C -637.4544067382812 436.0655212402344 -640.1460571289062 436.39227294921875 -643.3643798828125 436.7190246582031 C -666.4190063476562 439.1697692871094 -685.4360961914062 445.3238220214844 -700.4157104492188 455.18121337890625 C -706.0331420898438 458.9389343261719 -713.5814819335938 465.8553771972656 -716.7413330078125 470.2667236328125 C -727.8004760742188 485.6791076660156 -727.4493408203125 505.0125732421875 -715.863525390625 516.285888671875 C -712.1185913085938 519.9346923828125 -708.4322509765625 521.9497680664062 -703.282958984375 523.0934448242188 C -698.8944091796875 524.019287109375 -697.72412109375 524.019287109375 -693.39404296875 523.1478881835938 Z M -496.25946044921875 459.3201599121094 C -521.8887329101562 447.611083984375 -547.3424072265625 440.96697998046875 -580.344482421875 437.3725891113281 C -585.6107788085938 436.7735290527344 -590.057861328125 436.1744079589844 -590.2334594726562 436.0110168457031 C -590.935546875 435.35748291015625 -587.892822265625 400.0126037597656 -584.7915649414062 373.8716125488281 C -580.4615478515625 336.5661315917969 -570.3385620117188 268.7083435058594 -568.9927368164062 267.45574951171875 C -568.5831298828125 267.07452392578125 -567.412841796875 268.3815612792969 -559.1622924804688 278.56573486328125 C -545.9381103515625 294.9583435058594 -535.4640502929688 309.6081848144531 -500.2969970703125 361.0733947753906 C -472.3271789550781 401.9732360839844 -470.162109375 405.1863708496094 -465.89056396484375 411.9939270019531 C -463.8425598144531 415.31610107421875 -461.67755126953125 418.7470703125 -461.0339050292969 419.6728820800781 L -459.922119140625 421.3612060546875 L -463.19891357421875 425.1189270019531 C -469.2844543457031 432.03546142578125 -476.0721435546875 442.0561828613281 -485.9024963378906 458.7210693359375 C -487.0727844238281 460.73614501953125 -488.4185791015625 462.3699645996094 -488.82818603515625 462.3699645996094 C -489.2377624511719 462.3699645996094 -492.57305908203125 461.0084228515625 -496.25946044921875 459.3201599121094 Z " transform="matrix(1 0 0 1 0 0)" stroke-width="1.3333" class="" style="fill-opacity: 1; fill: #20a6f3;"/>
    <path d="M -843.073486328125 508.11676025390625 C -831.078125 506.2106628417969 -822.2425537109375 494.7739562988281 -824.4074096679688 483.8818664550781 C -825.8118286132812 476.69305419921875 -829.7908935546875 471.68267822265625 -838.099853515625 466.5633850097656 C -840.7330322265625 464.98406982421875 -850.7974243164062 459.15679931640625 -860.4522705078125 453.6562805175781 C -902.055908203125 429.9659423828125 -910.2479248046875 424.73773193359375 -943.5425415039062 400.5572814941406 C -958.1712036132812 389.93743896484375 -962.3256225585938 387.5956726074219 -968.2941284179688 386.5609436035156 C -980.3479614257812 384.4914245605469 -992.4603881835938 392.3881530761719 -994.68408203125 403.8248596191406 C -996.0298461914062 410.6324462890625 -993.1041259765625 418.2569580078125 -987.1942138671875 423.4306335449219 C -982.8641357421875 427.29736328125 -953.4314575195312 448.48248291015625 -939.9732666015625 457.4685363769531 C -924.4083862304688 467.8160400390625 -912.0032348632812 475.16815185546875 -861.6226196289062 503.868896484375 C -855.0689697265625 507.6266174316406 -848.8665161132812 509.0426025390625 -843.073486328125 508.11676025390625 Z " transform="matrix(1 0 0 1 0 0)" stroke-width="1.3333" class="" style="fill-opacity: 1; fill: #20a6f3;"/>
    <path d="M -165.30279541015625 480.6142272949219 C -156.99378967285156 478.8170166015625 -144.88133239746094 475.00482177734375 -111.17710876464844 463.62255859375 C -85.48934936523438 454.9633483886719 -62.49323272705078 446.52191162109375 -59.0408935546875 444.50689697265625 C -51.024444580078125 439.7143859863281 -46.4603271484375 430.8373718261719 -47.92319107055664 422.8860778808594 C -50.205238342285156 410.95916748046875 -62.025123596191406 403.1169128417969 -74.72272491455078 405.1863708496094 C -76.88774871826172 405.5132141113281 -85.60637664794922 408.2906188964844 -94.20795440673828 411.39483642578125 C -111.46966552734375 417.6578369140625 -116.26786041259766 419.34613037109375 -138.67881774902344 426.8072814941406 C -165.36131286621094 435.7387390136719 -172.50006103515625 437.8627014160156 -177.94189453125 438.4073791503906 C -183.96885681152344 439.0608825683594 -186.01686096191406 439.6599426269531 -189.87881469726562 441.94720458984375 C -195.61318969726562 445.3782653808594 -198.8314971923828 449.8440246582031 -200.11880493164062 456.2703552246094 C -202.4593505859375 467.32586669921875 -193.3311309814453 479.2526550292969 -180.8675994873047 481.4311218261719 C -176.12794494628906 482.2480773925781 -171.73936462402344 482.03021240234375 -165.30279541015625 480.6142272949219 Z " transform="matrix(1 0 0 1 0 0)" stroke-width="1.3333" class="" style="fill-opacity: 1; fill: #20a6f3;"/>
    <path d="M -228.1471405029297 390.4276428222656 C -221.35948181152344 388.95721435546875 -215.27398681640625 384.9270935058594 -200.4113311767578 372.2377624511719 C -194.96954345703125 367.5542297363281 -185.7242889404297 359.71185302734375 -179.93138122558594 354.9193420410156 C -165.1272430419922 342.5567932128906 -161.3823699951172 338.96240234375 -159.5684051513672 335.4224853515625 C -152.78076171875 322.51531982421875 -160.855712890625 307.70208740234375 -176.1864471435547 304.9790344238281 C -181.68678283691406 303.998779296875 -187.83078002929688 305.3057861328125 -193.5066680908203 308.7368469238281 C -197.25160217285156 311.0241394042969 -207.66714477539062 319.5199890136719 -227.79605102539062 336.78399658203125 C -235.05181884765625 343.0469665527344 -242.5416259765625 349.14654541015625 -244.41409301757812 350.3446960449219 C -251.84539794921875 355.0282897949219 -255.59030151367188 359.98419189453125 -256.9361267089844 366.791748046875 C -257.69683837890625 370.7129211425781 -256.87762451171875 375.2331237792969 -254.7126007080078 379.26318359375 C -252.89866638183594 382.5307922363281 -248.0419464111328 387.15997314453125 -244.8822021484375 388.521484375 C -239.6158905029297 390.86328125 -233.2378692626953 391.5712890625 -228.1471405029297 390.4276428222656 Z " transform="matrix(1 0 0 1 0 0)" stroke-width="1.3333" class="" style="fill-opacity: 1; fill: #20a6f3;"/>
  </g>
</svg>